{
  "accessors": [
    {
      "bufferView": 2,
      "componentType": 5126,
      "count": 753,
      "max": [
        2.6496999263763428,
        -12.191300392150879,
        2.2291998863220215
      ],
      "min": [
        -2.5241000652313232,
        -33.07789993286133,
        -2.0023000240325928
      ],
      "type": "VEC3"
    },
    {
      "bufferView": 2,
      "byteOffset": 9036,
      "componentType": 5126,
      "count": 753,
      "max": [
        0.9500115513801575,
        1.0,
        0.3081037402153015
      ],
      "min": [
        -0.0026999858673661947,
        -0.9999998807907104,
        -0.0019999889191240072
      ],
      "type": "VEC3"
    },
    {
      "bufferView": 1,
      "componentType": 5126,
      "count": 753,
      "max": [
        0.8356999754905701,
        0.446399986743927
      ],
      "min": [
        0.8356999754905701,
        0.446399986743927
      ],
      "type": "VEC2"
    },
    {
      "bufferView": 0,
      "componentType": 5125,
      "count": 3528,
      "type": "SCALAR"
    },
    {
      "bufferView": 2,
      "byteOffset": 18072,
      "componentType": 5126,
      "count": 55035,
      "max": [
        4.830699920654297,
        -0.19689999520778656,
        4.50600004196167
      ],
      "min": [
        -4.638000011444092,
        -64.52100372314453,
        -4.98199987411499
      ],
      "type": "VEC3"
    },
    {
      "bufferView": 2,
      "byteOffset": 678492,
      "componentType": 5126,
      "count": 55035,
      "max": [
        0.9999997615814209,
        1.0,
        1.0
      ],
      "min": [
        -0.9999997615814209,
        -1.0,
        -1.0
      ],
      "type": "VEC3"
    },
    {
      "bufferView": 1,
      "byteOffset": 6024,
      "componentType": 5126,
      "count": 55035,
      "max": [
        0.9959999918937683,
        0.9961000084877014
      ],
      "min": [
        0.0013000000035390258,
        0.00570000009611249
      ],
      "type": "VEC2"
    },
    {
      "bufferView": 0,
      "byteOffset": 14112,
      "componentType": 5125,
      "count": 284112,
      "type": "SCALAR"
    },
    {
      "bufferView": 2,
      "byteOffset": 1338912,
      "componentType": 5126,
      "count": 5819,
      "max": [
        4.670100212097168,
        -0.4603999853134155,
        4.325399875640869
      ],
      "min": [
        -4.474400043487549,
        -64.52100372314453,
        -4.80109977722168
      ],
      "type": "VEC3"
    },
    {
      "bufferView": 2,
      "byteOffset": 1408740,
      "componentType": 5126,
      "count": 5819,
      "max": [
        0.9999997615814209,
        1.0,
        0.9999997615814209
      ],
      "min": [
        -0.9999997615814209,
        -1.0,
        -0.9999997615814209
      ],
      "type": "VEC3"
    },
    {
      "bufferView": 1,
      "byteOffset": 446304,
      "componentType": 5126,
      "count": 5819,
      "max": [
        0.9965000152587891,
        0.9912999868392944
      ],
      "min": [
        0.0013000000035390258,
        0.029100000858306885
      ],
      "type": "VEC2"
    },
    {
      "bufferView": 0,
      "byteOffset": 1150560,
      "componentType": 5125,
      "count": 29256,
      "type": "SCALAR"
    }
  ],
  "asset": {
    "extras": {
      "author": "Henry Chi (https://sketchfab.com/henrychi)",
      "license": "CC-BY-NC-4.0 (http://creativecommons.org/licenses/by-nc/4.0/)",
      "source": "https://sketchfab.com/3d-models/clarinet-model-with-annotations-c47ddcb26eeb4fbd804a45c82f77ba31",
      "title": "Clarinet model (with annotations)"
    },
    "generator": "Sketchfab-14.52.0",
    "version": "2.0"
  },
  "bufferViews": [
    {
      "buffer": 0,
      "byteLength": 1267584,
      "name": "floatBufferViews",
      "target": 34963
    },
    {
      "buffer": 0,
      "byteLength": 492856,
      "byteOffset": 1267584,
      "byteStride": 8,
      "name": "floatBufferViews",
      "target": 34962
    },
    {
      "buffer": 0,
      "byteLength": 1478568,
      "byteOffset": 1760440,
      "byteStride": 12,
      "name": "floatBufferViews",
      "target": 34962
    }
  ],
  "buffers": [
    {
      "byteLength": 3239008,
      "uri": "scene.bin"
    }
  ],
  "images": [
    {
      "uri": "textures/Material__25_baseColor.jpeg"
    }
  ],
  "materials": [
    {
      "doubleSided": true,
      "name": "Material__25",
      "pbrMetallicRoughness": {
        "baseColorTexture": {
          "index": 0
        },
        "metallicFactor": 0.0,
        "roughnessFactor": 0.0
      }
    }
  ],
  "meshes": [
    {
      "name": "Object_0",
      "primitives": [
        {
          "attributes": {
            "NORMAL": 1,
            "POSITION": 0,
            "TEXCOORD_0": 2
          },
          "indices": 3,
          "material": 0,
          "mode": 4
        }
      ]
    },
    {
      "name": "Object_1",
      "primitives": [
        {
          "attributes": {
            "NORMAL": 5,
            "POSITION": 4,
            "TEXCOORD_0": 6
          },
          "indices": 7,
          "material": 0,
          "mode": 4
        }
      ]
    },
    {
      "name": "Object_2",
      "primitives": [
        {
          "attributes": {
            "NORMAL": 9,
            "POSITION": 8,
            "TEXCOORD_0": 10
          },
          "indices": 11,
          "material": 0,
          "mode": 4
        }
      ]
    }
  ],
  "nodes": [
    {
      "children": [
        1
      ],
      "matrix": [
        1.0,
        0.0,
        0.0,
        0.0,
        0.0,
        2.220446049250313e-16,
        -1.0,
        0.0,
        0.0,
        1.0,
        2.220446049250313e-16,
        0.0,
        0.0,
        0.0,
        0.0,
        1.0
      ],
      "name": "Sketchfab_model"
    },
    {
      "children": [
        2,
        3,
        4
      ],
      "name": "10373_Clarinet_v5_L3.obj.cleaner.materialmerger.gles"
    },
    {
      "mesh": 0,
      "name": "Object_2"
    },
    {
      "mesh": 1,
      "name": "Object_3"
    },
    {
      "mesh": 2,
      "name": "Object_4"
    }
  ],
  "samplers": [
    {
      "magFilter": 9729,
      "minFilter": 9987,
      "wrapS": 10497,
      "wrapT": 10497
    }
  ],
  "scene": 0,
  "scenes": [
    {
      "name": "Sketchfab_Scene",
      "nodes": [
        0
      ]
    }
  ],
  "textures": [
    {
      "sampler": 0,
      "source": 0
    }
  ]
}
