{
  "accessors": [
    {
      "bufferView": 2,
      "componentType": 5126,
      "count": 65532,
      "max": [
        105.53900146484375,
        -3.099999958067201e-05,
        60.790496826171875
      ],
      "min": [
        -132.5019989013672,
        -643.9569091796875,
        -60.790496826171875
      ],
      "type": "VEC3"
    },
    {
      "bufferView": 2,
      "byteOffset": 786384,
      "componentType": 5126,
      "count": 65532,
      "max": [
        0.9999881386756897,
        0.99997878074646,
        0.9999961853027344
      ],
      "min": [
        -0.9999998807907104,
        -0.9999880194664001,
        -0.9999960064888
      ],
      "type": "VEC3"
    },
    {
      "bufferView": 1,
      "componentType": 5126,
      "count": 65532,
      "max": [
        0.9980310201644897,
        0.9976999759674072
      ],
      "min": [
        0.0019529999699443579,
        0.0019529999699443579
      ],
      "type": "VEC2"
    },
    {
      "bufferView": 0,
      "componentType": 5125,
      "count": 249378,
      "type": "SCALAR"
    },
    {
      "bufferView": 2,
      "byteOffset": 1572768,
      "componentType": 5126,
      "count": 17849,
      "max": [
        132.5019989013672,
        -0.4840390086174011,
        59.17649841308594
      ],
      "min": [
        -105.83198547363281,
        -664.669921875,
        -56.420494079589844
      ],
      "type": "VEC3"
    },
    {
      "bufferView": 2,
      "byteOffset": 1786956,
      "componentType": 5126,
      "count": 17849,
      "max": [
        0.9998828172683716,
        0.9999554753303528,
        0.9999993443489075
      ],
      "min": [
        -0.9997311234474182,
        -0.9999173879623413,
        -0.9999251365661621
      ],
      "type": "VEC3"
    },
    {
      "bufferView": 1,
      "byteOffset": 524256,
      "componentType": 5126,
      "count": 17849,
      "max": [
        0.9980469942092896,
        0.9977239966392517
      ],
      "min": [
        0.0019529999699443579,
        0.0019529999699443579
      ],
      "type": "VEC2"
    },
    {
      "bufferView": 0,
      "byteOffset": 997512,
      "componentType": 5125,
      "count": 50622,
      "type": "SCALAR"
    }
  ],
  "asset": {
    "extras": {
      "author": "cmcsteen (https://sketchfab.com/cmcsteen)",
      "license": "CC-BY-4.0 (http://creativecommons.org/licenses/by/4.0/)",
      "source": "https://sketchfab.com/3d-models/charlie-bird-parkers-alto-saxophone-1670dd6dfd8f4f0ca910cd6c81c0e9de",
      "title": "Charlie \"Bird\" Parker's Alto Saxophone"
    },
    "generator": "Sketchfab-14.59.0",
    "version": "2.0"
  },
  "bufferViews": [
    {
      "buffer": 0,
      "byteLength": 1200000,
      "name": "floatBufferViews",
      "target": 34963
    },
    {
      "buffer": 0,
      "byteLength": 667048,
      "byteOffset": 1200000,
      "byteStride": 8,
      "name": "floatBufferViews",
      "target": 34962
    },
    {
      "buffer": 0,
      "byteLength": 2001144,
      "byteOffset": 1867048,
      "byteStride": 12,
      "name": "floatBufferViews",
      "target": 34962
    }
  ],
  "buffers": [
    {
      "byteLength": 3868192,
      "uri": "scene.bin"
    }
  ],
  "images": [
    {
      "uri": "textures/default_0_baseColor.jpeg"
    },
    {
      "uri": "textures/default_0_metallicRoughness.png"
    }
  ],
  "materials": [
    {
      "doubleSided": true,
      "name": "default_0",
      "pbrMetallicRoughness": {
        "baseColorTexture": {
          "index": 0
        },
        "metallicRoughnessTexture": {
          "index": 1
        }
      }
    }
  ],
  "meshes": [
    {
      "name": "Object_0",
      "primitives": [
        {
          "attributes": {
            "NORMAL": 1,
            "POSITION": 0,
            "TEXCOORD_0": 2
          },
          "indices": 3,
          "material": 0,
          "mode": 4
        }
      ]
    },
    {
      "name": "Object_1",
      "primitives": [
        {
          "attributes": {
            "NORMAL": 5,
            "POSITION": 4,
            "TEXCOORD_0": 6
          },
          "indices": 7,
          "material": 0,
          "mode": 4
        }
      ]
    }
  ],
  "nodes": [
    {
      "children": [
        1
      ],
      "matrix": [
        -0.48064157366752625,
        1.3920356507369906e-16,
        -0.8769171237945557,
        0.0,
        -1.6653345369377348e-16,
        -1.0,
        -1.1102230246251565e-16,
        0.0,
        -0.8769171237945557,
        1.153207365894801e-16,
        0.48064157366752625,
        0.0,
        0.0,
        0.0,
        0.0,
        1.0
      ],
      "name": "Sketchfab_model"
    },
    {
      "children": [
        2,
        3
      ],
      "name": "Better Model.obj.cleaner.materialmerger.gles"
    },
    {
      "mesh": 0,
      "name": "Object_2"
    },
    {
      "mesh": 1,
      "name": "Object_3"
    }
  ],
  "samplers": [
    {
      "magFilter": 9729,
      "minFilter": 9987,
      "wrapS": 10497,
      "wrapT": 10497
    }
  ],
  "scene": 0,
  "scenes": [
    {
      "name": "Sketchfab_Scene",
      "nodes": [
        0
      ]
    }
  ],
  "textures": [
    {
      "sampler": 0,
      "source": 0
    },
    {
      "sampler": 0,
      "source": 1
    }
  ]
}
