{
  "accessors": [
    {
      "bufferView": 1,
      "componentType": 5126,
      "count": 10089,
      "max": [
        41.04999923706055,
        -0.25,
        -49.20000076293945
      ],
      "min": [
        -62.97489929199219,
        -19.25,
        -81.5
      ],
      "type": "VEC3"
    },
    {
      "bufferView": 1,
      "byteOffset": 121068,
      "componentType": 5126,
      "count": 10089,
      "max": [
        1.0,
        1.0,
        1.0
      ],
      "min": [
        -1.0,
        -1.0,
        -1.0
      ],
      "type": "VEC3"
    },
    {
      "bufferView": 0,
      "componentType": 5125,
      "count": 40593,
      "type": "SCALAR"
    },
    {
      "bufferView": 1,
      "byteOffset": 242136,
      "componentType": 5126,
      "count": 7776,
      "max": [
        52.900001525878906,
        -6.929999828338623,
        -47.58000183105469
      ],
      "min": [
        -11.406000137329102,
        -12.569999694824219,
        -73.19999694824219
      ],
      "type": "VEC3"
    },
    {
      "bufferView": 1,
      "byteOffset": 335448,
      "componentType": 5126,
      "count": 7776,
      "max": [
        1.0,
        1.0,
        1.0
      ],
      "min": [
        -1.0,
        -1.0,
        -1.0
      ],
      "type": "VEC3"
    },
    {
      "bufferView": 0,
      "byteOffset": 162372,
      "componentType": 5125,
      "count": 40722,
      "type": "SCALAR"
    },
    {
      "bufferView": 1,
      "byteOffset": 428760,
      "componentType": 5126,
      "count": 872,
      "max": [
        -62.5432014465332,
        -9.149999618530273,
        -54.12699890136719
      ],
      "min": [
        -63.91400146484375,
        -10.699999809265137,
        -55.66910171508789
      ],
      "type": "VEC3"
    },
    {
      "bufferView": 1,
      "byteOffset": 439224,
      "componentType": 5126,
      "count": 872,
      "max": [
        0.24252860248088837,
        0.9996768832206726,
        0.9972090125083923
      ],
      "min": [
        -1.0,
        -0.9999999403953552,
        -0.9986268877983093
      ],
      "type": "VEC3"
    },
    {
      "bufferView": 0,
      "byteOffset": 325260,
      "componentType": 5125,
      "count": 4467,
      "type": "SCALAR"
    }
  ],
  "asset": {
    "extras": {
      "author": "Squirmy Worm (https://sketchfab.com/squirmyworm064)",
      "license": "CC-BY-4.0 (http://creativecommons.org/licenses/by/4.0/)",
      "source": "https://sketchfab.com/3d-models/trombone-3ca21c61eee146a2acca47069a6e95c0",
      "title": "Trombone"
    },
    "generator": "Sketchfab-14.64.0",
    "version": "2.0"
  },
  "bufferViews": [
    {
      "buffer": 0,
      "byteLength": 343128,
      "name": "floatBufferViews",
      "target": 34963
    },
    {
      "buffer": 0,
      "byteLength": 449688,
      "byteOffset": 343128,
      "byteStride": 12,
      "name": "floatBufferViews",
      "target": 34962
    }
  ],
  "buffers": [
    {
      "byteLength": 792816,
      "uri": "scene.bin"
    }
  ],
  "materials": [
    {
      "doubleSided": true,
      "name": "color_16771174",
      "pbrMetallicRoughness": {
        "baseColorFactor": [
          1.0,
          0.7770536934539004,
          0.019708368943048015,
          1.0
        ],
        "roughnessFactor": 0.0
      }
    },
    {
      "doubleSided": true,
      "name": "color_16776357",
      "pbrMetallicRoughness": {
        "baseColorFactor": [
          1.0,
          0.9302980620071746,
          0.5904156236851367,
          1.0
        ],
        "roughnessFactor": 0.0
      }
    },
    {
      "doubleSided": true,
      "name": "color_2829873",
      "pbrMetallicRoughness": {
        "baseColorFactor": [
          0.0,
          0.0,
          0.0,
          1.0
        ],
        "metallicFactor": 0.0,
        "roughnessFactor": 0.6
      }
    }
  ],
  "meshes": [
    {
      "name": "Object_0",
      "primitives": [
        {
          "attributes": {
            "NORMAL": 1,
            "POSITION": 0
          },
          "indices": 2,
          "material": 0,
          "mode": 4
        }
      ]
    },
    {
      "name": "Object_1",
      "primitives": [
        {
          "attributes": {
            "NORMAL": 4,
            "POSITION": 3
          },
          "indices": 5,
          "material": 1,
          "mode": 4
        }
      ]
    },
    {
      "name": "Object_2",
      "primitives": [
        {
          "attributes": {
            "NORMAL": 7,
            "POSITION": 6
          },
          "indices": 8,
          "material": 2,
          "mode": 4
        }
      ]
    }
  ],
  "nodes": [
    {
      "children": [
        1
      ],
      "matrix": [
        1.0,
        0.0,
        0.0,
        0.0,
        0.0,
        -1.0,
        -4.440892098500626e-16,
        0.0,
        0.0,
        4.440892098500626e-16,
        -1.0,
        0.0,
        0.0,
        0.0,
        0.0,
        1.0
      ],
      "name": "Sketchfab_model"
    },
    {
      "children": [
        2,
        3,
        4
      ],
      "name": "tinker.obj.cleaner.materialmerger.gles"
    },
    {
      "mesh": 0,
      "name": "Object_2"
    },
    {
      "mesh": 1,
      "name": "Object_3"
    },
    {
      "mesh": 2,
      "name": "Object_4"
    }
  ],
  "scene": 0,
  "scenes": [
    {
      "name": "Sketchfab_Scene",
      "nodes": [
        0
      ]
    }
  ]
}
