{
  "accessors": [
    {
      "bufferView": 2,
      "componentType": 5126,
      "count": 65532,
      "max": [
        1.456227421760559,
        0.18381604552268982,
        0.20130209624767303
      ],
      "min": [
        -1.4299315214157104,
        -0.30288243293762207,
        -0.07322719693183899
      ],
      "type": "VEC3"
    },
    {
      "bufferView": 2,
      "byteOffset": 786384,
      "componentType": 5126,
      "count": 65532,
      "max": [
        1.0,
        1.0,
        1.0
      ],
      "min": [
        -1.0,
        -1.0,
        -1.0
      ],
      "type": "VEC3"
    },
    {
      "bufferView": 3,
      "componentType": 5126,
      "count": 65532,
      "max": [
        1.0,
        1.0,
        1.0,
        1.0
      ],
      "min": [
        -1.0,
        -1.0,
        -1.0,
        -1.0
      ],
      "type": "VEC4"
    },
    {
      "bufferView": 1,
      "componentType": 5126,
      "count": 65532,
      "max": [
        0.9812279939651489,
        0.992395281791687
      ],
      "min": [
        0.024243036285042763,
        0.0019202125258743763
      ],
      "type": "VEC2"
    },
    {
      "bufferView": 1,
      "byteOffset": 524256,
      "componentType": 5126,
      "count": 65532,
      "max": [
        0.9812279939651489,
        0.992395281791687
      ],
      "min": [
        0.024243036285042763,
        0.0019202125258743763
      ],
      "type": "VEC2"
    },
    {
      "bufferView": 0,
      "componentType": 5125,
      "count": 352743,
      "type": "SCALAR"
    },
    {
      "bufferView": 2,
      "byteOffset": 1572768,
      "componentType": 5126,
      "count": 65532,
      "max": [
        1.4407694339752197,
        0.148360475897789,
        0.09794973582029343
      ],
      "min": [
        -1.413628101348877,
        -0.15046188235282898,
        0.06071516498923302
      ],
      "type": "VEC3"
    },
    {
      "bufferView": 2,
      "byteOffset": 2359152,
      "componentType": 5126,
      "count": 65532,
      "max": [
        0.9999773502349854,
        1.0,
        1.0
      ],
      "min": [
        -1.0,
        -1.0,
        -1.0
      ],
      "type": "VEC3"
    },
    {
      "bufferView": 3,
      "byteOffset": 1048512,
      "componentType": 5126,
      "count": 65532,
      "max": [
        0.999995768070221,
        1.0,
        1.0,
        1.0
      ],
      "min": [
        -0.999997615814209,
        -1.0,
        -1.0,
        -1.0
      ],
      "type": "VEC4"
    },
    {
      "bufferView": 1,
      "byteOffset": 1048512,
      "componentType": 5126,
      "count": 65532,
      "max": [
        0.8424606323242188,
        0.9877610802650452
      ],
      "min": [
        0.7807272672653198,
        0.2682080864906311
      ],
      "type": "VEC2"
    },
    {
      "bufferView": 1,
      "byteOffset": 1572768,
      "componentType": 5126,
      "count": 65532,
      "max": [
        0.8424606323242188,
        0.9877610802650452
      ],
      "min": [
        0.7807272672653198,
        0.2682080864906311
      ],
      "type": "VEC2"
    },
    {
      "bufferView": 0,
      "byteOffset": 1410972,
      "componentType": 5125,
      "count": 367239,
      "type": "SCALAR"
    },
    {
      "bufferView": 2,
      "byteOffset": 3145536,
      "componentType": 5126,
      "count": 65532,
      "max": [
        1.4654837846755981,
        0.4998214840888977,
        0.18084315955638885
      ],
      "min": [
        -1.4676933288574219,
        -0.30368509888648987,
        -0.06747947633266449
      ],
      "type": "VEC3"
    },
    {
      "bufferView": 2,
      "byteOffset": 3931920,
      "componentType": 5126,
      "count": 65532,
      "max": [
        1.0,
        1.0,
        1.0
      ],
      "min": [
        -1.0,
        -1.0,
        -1.0
      ],
      "type": "VEC3"
    },
    {
      "bufferView": 3,
      "byteOffset": 2097024,
      "componentType": 5126,
      "count": 65532,
      "max": [
        1.0,
        1.0,
        1.0,
        1.0
      ],
      "min": [
        -1.0,
        -1.0,
        -1.0,
        -1.0
      ],
      "type": "VEC4"
    },
    {
      "bufferView": 1,
      "byteOffset": 2097024,
      "componentType": 5126,
      "count": 65532,
      "max": [
        0.953597903251648,
        0.9924219846725464
      ],
      "min": [
        0.024243036285042763,
        0.0019202125258743763
      ],
      "type": "VEC2"
    },
    {
      "bufferView": 1,
      "byteOffset": 2621280,
      "componentType": 5126,
      "count": 65532,
      "max": [
        0.953597903251648,
        0.9924219846725464
      ],
      "min": [
        0.024243036285042763,
        0.0019202125258743763
      ],
      "type": "VEC2"
    },
    {
      "bufferView": 0,
      "byteOffset": 2879928,
      "componentType": 5125,
      "count": 334218,
      "type": "SCALAR"
    },
    {
      "bufferView": 2,
      "byteOffset": 4718304,
      "componentType": 5126,
      "count": 65532,
      "max": [
        1.5874121189117432,
        0.5865705609321594,
        0.11704669892787933
      ],
      "min": [
        -1.555117130279541,
        -0.6069753766059875,
        -0.8124220967292786
      ],
      "type": "VEC3"
    },
    {
      "bufferView": 2,
      "byteOffset": 5504688,
      "componentType": 5126,
      "count": 65532,
      "max": [
        1.0,
        1.0,
        1.0
      ],
      "min": [
        -1.0,
        -1.0,
        -1.0
      ],
      "type": "VEC3"
    },
    {
      "bufferView": 3,
      "byteOffset": 3145536,
      "componentType": 5126,
      "count": 65532,
      "max": [
        1.0,
        1.0,
        1.0,
        1.0
      ],
      "min": [
        -1.0,
        -1.0,
        -1.0,
        1.0
      ],
      "type": "VEC4"
    },
    {
      "bufferView": 1,
      "byteOffset": 3145536,
      "componentType": 5126,
      "count": 65532,
      "max": [
        0.9695591926574707,
        0.9443357586860657
      ],
      "min": [
        0.024243036285042763,
        0.0019202125258743763
      ],
      "type": "VEC2"
    },
    {
      "bufferView": 1,
      "byteOffset": 3669792,
      "componentType": 5126,
      "count": 65532,
      "max": [
        0.9695591926574707,
        0.9443357586860657
      ],
      "min": [
        0.024243036285042763,
        0.0019202125258743763
      ],
      "type": "VEC2"
    },
    {
      "bufferView": 0,
      "byteOffset": 4216800,
      "componentType": 5125,
      "count": 258828,
      "type": "SCALAR"
    },
    {
      "bufferView": 2,
      "byteOffset": 6291072,
      "componentType": 5126,
      "count": 65532,
      "max": [
        0.9430962800979614,
        0.03581513464450836,
        0.05875355750322342
      ],
      "min": [
        -0.906143307685852,
        -0.04473590478301048,
        -0.3924294114112854
      ],
      "type": "VEC3"
    },
    {
      "bufferView": 2,
      "byteOffset": 7077456,
      "componentType": 5126,
      "count": 65532,
      "max": [
        1.0,
        1.0,
        1.0
      ],
      "min": [
        -1.0,
        -1.0,
        -1.0
      ],
      "type": "VEC3"
    },
    {
      "bufferView": 3,
      "byteOffset": 4194048,
      "componentType": 5126,
      "count": 65532,
      "max": [
        1.0,
        1.0,
        1.0,
        1.0
      ],
      "min": [
        -1.0,
        -1.0,
        -1.0,
        1.0
      ],
      "type": "VEC4"
    },
    {
      "bufferView": 1,
      "byteOffset": 4194048,
      "componentType": 5126,
      "count": 65532,
      "max": [
        0.9695591926574707,
        0.9463186264038086
      ],
      "min": [
        0.024243036285042763,
        0.0019202125258743763
      ],
      "type": "VEC2"
    },
    {
      "bufferView": 1,
      "byteOffset": 4718304,
      "componentType": 5126,
      "count": 65532,
      "max": [
        0.9695591926574707,
        0.9463186264038086
      ],
      "min": [
        0.024243036285042763,
        0.0019202125258743763
      ],
      "type": "VEC2"
    },
    {
      "bufferView": 0,
      "byteOffset": 5252112,
      "componentType": 5125,
      "count": 320481,
      "type": "SCALAR"
    },
    {
      "bufferView": 2,
      "byteOffset": 7863840,
      "componentType": 5126,
      "count": 9041,
      "max": [
        1.0659350156784058,
        0.03581513464450836,
        0.05875355750322342
      ],
      "min": [
        0.8633462190628052,
        -0.04473590478301048,
        -0.09181872010231018
      ],
      "type": "VEC3"
    },
    {
      "bufferView": 2,
      "byteOffset": 7972332,
      "componentType": 5126,
      "count": 9041,
      "max": [
        1.0,
        1.0,
        1.0
      ],
      "min": [
        -1.0,
        -1.0,
        -1.0
      ],
      "type": "VEC3"
    },
    {
      "bufferView": 3,
      "byteOffset": 5242560,
      "componentType": 5126,
      "count": 9041,
      "max": [
        0.9998809099197388,
        0.999998152256012,
        1.0,
        1.0
      ],
      "min": [
        -0.9987949132919312,
        -0.9999799132347107,
        -1.0,
        1.0
      ],
      "type": "VEC4"
    },
    {
      "bufferView": 1,
      "byteOffset": 5242560,
      "componentType": 5126,
      "count": 9041,
      "max": [
        0.9685227870941162,
        0.9458189010620117
      ],
      "min": [
        0.1762217879295349,
        0.2087731957435608
      ],
      "type": "VEC2"
    },
    {
      "bufferView": 1,
      "byteOffset": 5314888,
      "componentType": 5126,
      "count": 9041,
      "max": [
        0.9685227870941162,
        0.9458189010620117
      ],
      "min": [
        0.1762217879295349,
        0.2087731957435608
      ],
      "type": "VEC2"
    },
    {
      "bufferView": 0,
      "byteOffset": 6534036,
      "componentType": 5125,
      "count": 43803,
      "type": "SCALAR"
    }
  ],
  "asset": {
    "extras": {
      "author": "3D Vault (https://sketchfab.com/3DVault)",
      "license": "CC-BY-4.0 (http://creativecommons.org/licenses/by/4.0/)",
      "source": "https://sketchfab.com/3d-models/marimba-f0829ad13fb4423b9539cc3ba0d13b9e",
      "title": "Marimba"
    },
    "generator": "Sketchfab-12.64.0",
    "version": "2.0"
  },
  "bufferViews": [
    {
      "buffer": 0,
      "byteLength": 6709248,
      "name": "floatBufferViews",
      "target": 34963
    },
    {
      "buffer": 0,
      "byteLength": 5387216,
      "byteOffset": 6709248,
      "byteStride": 8,
      "name": "floatBufferViews",
      "target": 34962
    },
    {
      "buffer": 0,
      "byteLength": 8080824,
      "byteOffset": 12096464,
      "byteStride": 12,
      "name": "floatBufferViews",
      "target": 34962
    },
    {
      "buffer": 0,
      "byteLength": 5387216,
      "byteOffset": 20177288,
      "byteStride": 16,
      "name": "floatBufferViews",
      "target": 34962
    }
  ],
  "buffers": [
    {
      "byteLength": 25564504,
      "uri": "scene.bin"
    }
  ],
  "images": [
    {
      "uri": "textures/marimba_baseColor.png"
    },
    {
      "uri": "textures/marimba_metallicRoughness.png"
    },
    {
      "uri": "textures/marimba_normal.png"
    }
  ],
  "materials": [
    {
      "doubleSided": true,
      "name": "marimba",
      "normalTexture": {
        "index": 2
      },
      "occlusionTexture": {
        "index": 1
      },
      "pbrMetallicRoughness": {
        "baseColorTexture": {
          "index": 0
        },
        "metallicFactor": 0.0,
        "metallicRoughnessTexture": {
          "index": 1
        }
      }
    }
  ],
  "meshes": [
    {
      "name": "Marimba high_marimba_0",
      "primitives": [
        {
          "attributes": {
            "NORMAL": 1,
            "POSITION": 0,
            "TANGENT": 2,
            "TEXCOORD_0": 3,
            "TEXCOORD_1": 4
          },
          "indices": 5,
          "material": 0,
          "mode": 4
        }
      ]
    },
    {
      "name": "Marimba high_marimba_0",
      "primitives": [
        {
          "attributes": {
            "NORMAL": 7,
            "POSITION": 6,
            "TANGENT": 8,
            "TEXCOORD_0": 9,
            "TEXCOORD_1": 10
          },
          "indices": 11,
          "material": 0,
          "mode": 4
        }
      ]
    },
    {
      "name": "Marimba high_marimba_0",
      "primitives": [
        {
          "attributes": {
            "NORMAL": 13,
            "POSITION": 12,
            "TANGENT": 14,
            "TEXCOORD_0": 15,
            "TEXCOORD_1": 16
          },
          "indices": 17,
          "material": 0,
          "mode": 4
        }
      ]
    },
    {
      "name": "Marimba high_marimba_0",
      "primitives": [
        {
          "attributes": {
            "NORMAL": 19,
            "POSITION": 18,
            "TANGENT": 20,
            "TEXCOORD_0": 21,
            "TEXCOORD_1": 22
          },
          "indices": 23,
          "material": 0,
          "mode": 4
        }
      ]
    },
    {
      "name": "Marimba high_marimba_0",
      "primitives": [
        {
          "attributes": {
            "NORMAL": 25,
            "POSITION": 24,
            "TANGENT": 26,
            "TEXCOORD_0": 27,
            "TEXCOORD_1": 28
          },
          "indices": 29,
          "material": 0,
          "mode": 4
        }
      ]
    },
    {
      "name": "Marimba high_marimba_0",
      "primitives": [
        {
          "attributes": {
            "NORMAL": 31,
            "POSITION": 30,
            "TANGENT": 32,
            "TEXCOORD_0": 33,
            "TEXCOORD_1": 34
          },
          "indices": 35,
          "material": 0,
          "mode": 4
        }
      ]
    }
  ],
  "nodes": [
    {
      "children": [
        1
      ],
      "matrix": [
        1.0,
        0.0,
        0.0,
        0.0,
        0.0,
        2.220446049250313e-16,
        -1.0,
        0.0,
        0.0,
        1.0,
        2.220446049250313e-16,
        0.0,
        0.0,
        0.0,
        0.0,
        1.0
      ],
      "name": "Sketchfab_model"
    },
    {
      "children": [
        2
      ],
      "matrix": [
        1.0,
        0.0,
        0.0,
        0.0,
        0.0,
        0.0,
        1.0,
        0.0,
        0.0,
        -1.0,
        0.0,
        0.0,
        0.0,
        0.0,
        0.0,
        1.0
      ],
      "name": "marimba high.fbx"
    },
    {
      "children": [
        3
      ],
      "name": "RootNode"
    },
    {
      "children": [
        4,
        5,
        6,
        7,
        8,
        9
      ],
      "matrix": [
        100.0,
        0.0,
        0.0,
        0.0,
        0.0,
        -1.629206793918314e-05,
        -99.99999999999868,
        0.0,
        0.0,
        99.99999999999868,
        -1.629206793918314e-05,
        0.0,
        135.01785278320313,
        -8.760194778442383,
        -0.44603651762008667,
        1.0
      ],
      "name": "Marimba high"
    },
    {
      "mesh": 0,
      "name": "Marimba high_marimba_0"
    },
    {
      "mesh": 1,
      "name": "Marimba high_marimba_0"
    },
    {
      "mesh": 2,
      "name": "Marimba high_marimba_0"
    },
    {
      "mesh": 3,
      "name": "Marimba high_marimba_0"
    },
    {
      "mesh": 4,
      "name": "Marimba high_marimba_0"
    },
    {
      "mesh": 5,
      "name": "Marimba high_marimba_0"
    }
  ],
  "samplers": [
    {
      "magFilter": 9729,
      "minFilter": 9987,
      "wrapS": 10497,
      "wrapT": 10497
    }
  ],
  "scene": 0,
  "scenes": [
    {
      "name": "Sketchfab_Scene",
      "nodes": [
        0
      ]
    }
  ],
  "textures": [
    {
      "sampler": 0,
      "source": 0
    },
    {
      "sampler": 0,
      "source": 1
    },
    {
      "sampler": 0,
      "source": 2
    }
  ]
}
